<?xml version="1.0" encoding="utf-8"?>
<!-- Generator: Adobe Illustrator 24.0.2, SVG Export Plug-In . SVG Version: 6.00 Build 0)  -->
<svg version="1.1" id="Layer_1" xmlns="http://www.w3.org/2000/svg" xmlns:xlink="http://www.w3.org/1999/xlink" x="0px" y="0px"
	 viewBox="0 0 522.3 204.5" style="enable-background:new 0 0 522.3 204.5;" xml:space="preserve">
<style type="text/css">
	.st0{fill:#FFFFFF;}
	.st1{fill:#9E9857;}
</style>
<rect x="-138.8" y="-223.3" class="st0" width="800" height="650"/>
<polygon class="st1" points="372.9,102.6 283.3,190.8 322.2,190.8 392.6,119.8 418.5,142.6 429.8,142.6 392.6,109.4 319.1,183.2 
	301.8,183.2 384.1,102.3 337.9,62.1 326.4,62.1 "/>
<polygon class="st1" points="500,13.7 460.6,13.7 390.7,84.3 365.1,62.1 353.6,62.1 390.7,94.9 463.8,21.3 481.5,21.3 399.8,101.5 
	445.3,142.6 456.6,142.6 410.8,101.2 "/>
<polygon class="st1" points="372.8,62.1 383.2,62.1 390.4,67.9 436.5,21.4 440.8,26.6 390.4,77.4 "/>
<polygon class="st1" points="409.9,141.8 399.5,141.8 392.3,136 346.1,182.5 341.9,177.3 392.3,126.5 "/>
<path class="st1" d="M46,119.2c-1.1,0-2.1-0.2-3-0.7c-0.9-0.5-1.6-1.2-2.1-2.1l-9.3-19.3c-0.1-0.2-0.3-0.4-0.6-0.4
	c-0.2,0-0.3,0.1-0.5,0.2c-0.2,0.1-0.2,0.3-0.2,0.6v21h-7.9V96.1c0-1.7,0.2-3.1,0.7-4.3c0.5-1.1,1.2-2,2.1-2.8c0.7-0.5,1.5-1,2.4-1.3
	c0.9-0.3,1.9-0.5,3-0.5c1.9,0,3.5,0.5,4.7,1.6c1.2,1.1,2.2,2.4,3,4.1l6.9,15.1c0.2,0.4,0.4,0.6,0.8,0.6c0.4,0,0.6-0.2,0.8-0.6
	l6.9-15.1c0.8-1.7,1.8-3.1,3-4.1c1.2-1.1,2.8-1.6,4.8-1.6c1.1,0,2.1,0.2,3,0.5c0.9,0.3,1.7,0.8,2.4,1.3c0.9,0.7,1.6,1.6,2.1,2.8
	c0.5,1.1,0.7,2.5,0.7,4.3v22.5h-7.9v-21c0-0.3-0.1-0.5-0.2-0.6c-0.2-0.1-0.3-0.2-0.5-0.2c-0.3,0-0.5,0.1-0.6,0.4l-9.3,19.3
	c-0.5,1-1.2,1.7-2.1,2.1C48.1,119,47.1,119.2,46,119.2z"/>
<path class="st1" d="M84.7,118.6c-1.9,0-3.6-0.2-4.9-0.6c-1.4-0.4-2.5-1-3.3-1.8c-0.9-0.8-1.5-1.8-1.9-3c-0.4-1.2-0.6-2.7-0.6-4.4
	V87.9h8.3v20c0,1.9,1,2.9,2.9,2.9h12.7c2,0,3-1,3-2.9v-20h8.3v20.9c0,3.4-0.8,5.9-2.5,7.5c-1.7,1.6-4.4,2.3-8.3,2.3H84.7z"/>
<path class="st1" d="M132.1,87.9c2.5,0,4.7,0.4,6.5,1.1c1.9,0.7,3.5,1.7,4.8,3c1.5,1.4,2.8,3.1,3.6,5c0.9,1.9,1.3,4,1.3,6.3
	c0,2-0.3,3.9-1,5.7c-0.7,1.8-1.7,3.3-2.9,4.7c-1.4,1.5-3.1,2.8-5.2,3.7c-2,0.9-4.4,1.3-7.2,1.3h-16.6c-1.3,0-2-0.7-2-2V89.8
	c0-1.3,0.7-1.9,2-1.9H132.1z M122.4,96c-0.4,0-0.6,0.2-0.6,0.6v13.2c0,0.4,0.2,0.6,0.6,0.6h9.8c1.5,0,2.7-0.2,3.7-0.6
	c1-0.4,1.8-1,2.5-1.7c0.6-0.6,1.1-1.4,1.4-2.2c0.3-0.8,0.5-1.7,0.5-2.7c0-1-0.2-2-0.6-2.9c-0.4-0.9-1-1.7-1.7-2.4
	c-0.7-0.6-1.5-1.1-2.4-1.5c-0.9-0.4-2.1-0.5-3.4-0.5H122.4z"/>
<path class="st1" d="M194.2,119.2c-1.1,0-2.1-0.2-3-0.7c-0.9-0.5-1.6-1.2-2.1-2.1l-9.3-19.3c-0.1-0.2-0.3-0.4-0.6-0.4
	c-0.2,0-0.3,0.1-0.5,0.2c-0.2,0.1-0.2,0.3-0.2,0.6v21h-7.9V96.1c0-1.7,0.2-3.1,0.7-4.3c0.5-1.1,1.2-2,2.1-2.8c0.7-0.5,1.5-1,2.4-1.3
	c0.9-0.3,1.9-0.5,3-0.5c1.9,0,3.5,0.5,4.7,1.6c1.2,1.1,2.2,2.4,3,4.1l6.9,15.1c0.2,0.4,0.4,0.6,0.8,0.6c0.4,0,0.6-0.2,0.8-0.6
	l6.9-15.1c0.8-1.7,1.8-3.1,3-4.1c1.2-1.1,2.8-1.6,4.8-1.6c1.1,0,2.1,0.2,3,0.5c0.9,0.3,1.7,0.8,2.4,1.3c0.9,0.7,1.6,1.6,2.1,2.8
	c0.5,1.1,0.7,2.5,0.7,4.3v22.5h-7.9v-21c0-0.3-0.1-0.5-0.2-0.6c-0.2-0.1-0.3-0.2-0.5-0.2c-0.3,0-0.5,0.1-0.6,0.4l-9.3,19.3
	c-0.5,1-1.2,1.7-2.1,2.1C196.3,119,195.2,119.2,194.2,119.2z"/>
<path class="st1" d="M254.5,87.9V96h-23.3c-0.5,0-0.7,0.3-0.7,0.8v3.5h23.9v5.9h-23.9v3.7c0,0.5,0.2,0.8,0.7,0.8h23.3v7.8h-27.9
	c-2.9,0-4.3-1.4-4.3-4.3V92c0-2.8,1.5-4.1,4.4-4.1H254.5z"/>
<path class="st1" d="M292.2,87.9V96h-13.4v22.5h-8.3V96H257v-8.1H292.2z"/>
<path class="st1" d="M303.6,118.6h-8.2V89.8c0-1.3,0.7-1.9,2-1.9h21.8c1.9,0,3.5,0.3,4.7,0.8c1.2,0.5,2.3,1.2,3.1,2.1
	c0.8,0.8,1.4,1.7,1.8,2.7c0.4,1,0.7,2.1,0.7,3.3c0,1.2-0.2,2.4-0.6,3.5c-0.4,1.1-1.2,2-2.3,2.8c1,0.6,1.8,1.4,2.2,2.3s0.7,2.3,0.7,4
	v6.1c0,0.7,0,1.2,0,1.6c0,0.4,0.1,0.8,0.1,1.3h-8.3c-0.1-0.7-0.1-1.3-0.1-2v-6.1c0-1-0.3-1.7-0.8-2.1c-0.5-0.4-1.4-0.6-2.6-0.6
	h-14.3V118.6z M318.1,100.7c0.6,0,1-0.1,1.4-0.3c0.4-0.2,0.7-0.4,0.9-0.7c0.4-0.5,0.6-1,0.6-1.6c0-0.7-0.2-1.3-0.7-1.7
	c-0.5-0.5-1.2-0.8-2.2-0.8h-13.8c-0.5,0-0.7,0.2-0.7,0.7v4.4H318.1z"/>
<path class="st1" d="M341.9,87.9v30.7h-8.3V87.9H341.9z"/>
</svg>
